<svg xmlns="http://www.w3.org/2000/svg" xmlns:xlink="http://www.w3.org/1999/xlink" width="500" zoomAndPan="magnify" viewBox="0 0 375 52.499999" height="70" preserveAspectRatio="xMidYMid meet" version="1.0"><defs><g/><clipPath id="66de779baf"><path d="M 169.089844 13.214844 L 193.710938 13.214844 L 193.710938 37.835938 L 169.089844 37.835938 Z M 169.089844 13.214844 " clip-rule="nonzero"/></clipPath><clipPath id="50bfe3e40f"><path d="M 169.332031 13.457031 L 193.46875 13.457031 L 193.46875 37.59375 L 169.332031 37.59375 Z M 169.332031 13.457031 " clip-rule="nonzero"/></clipPath><clipPath id="0219e8c009"><path d="M 169.847656 13.972656 L 192.953125 13.972656 L 192.953125 37.078125 L 169.847656 37.078125 Z M 169.847656 13.972656 " clip-rule="nonzero"/></clipPath><clipPath id="7259c21849"><path d="M 174.628906 6.824219 L 187.773438 6.824219 L 187.773438 19.96875 L 174.628906 19.96875 Z M 174.628906 6.824219 " clip-rule="nonzero"/></clipPath><clipPath id="a6c1b69d78"><path d="M 162.972656 25.757812 L 175 25.757812 L 175 37.839844 L 162.972656 37.839844 Z M 162.972656 25.757812 " clip-rule="nonzero"/></clipPath><clipPath id="1e049d0698"><path d="M 164 25.757812 L 175 25.757812 L 175 37 L 164 37 Z M 164 25.757812 " clip-rule="nonzero"/></clipPath><clipPath id="c8d96a985c"><path d="M 175.417969 20.089844 L 187.398438 20.089844 L 187.398438 32.167969 L 175.417969 32.167969 Z M 175.417969 20.089844 " clip-rule="nonzero"/></clipPath><clipPath id="59cb6cfbd8"><path d="M 187.960938 24.859375 L 200.039062 24.859375 L 200.039062 36.941406 L 187.960938 36.941406 Z M 187.960938 24.859375 " clip-rule="nonzero"/></clipPath><clipPath id="77edf10b1f"><path d="M 187.960938 24.859375 L 195 24.859375 L 195 36.941406 L 187.960938 36.941406 Z M 187.960938 24.859375 " clip-rule="nonzero"/></clipPath><clipPath id="88f76a4b22"><path d="M 193 24.859375 L 200 24.859375 L 200 32 L 193 32 Z M 193 24.859375 " clip-rule="nonzero"/></clipPath><clipPath id="57ac391b18"><path d="M 193 28 L 200.039062 28 L 200.039062 36 L 193 36 Z M 193 28 " clip-rule="nonzero"/></clipPath></defs><g fill="#1c1b1a" fill-opacity="1"><g transform="translate(110.778016, 34.174236)"><g><path d="M 1.835938 0 L 8.011719 0 L 8.011719 -6.757812 L 12.164062 -6.757812 C 18.308594 -6.757812 21.914062 -10.039062 21.914062 -14.867188 C 21.914062 -19.726562 18.34375 -22.976562 12.261719 -22.976562 L 1.835938 -22.976562 Z M 8.011719 -11.167969 L 8.011719 -18.566406 L 11.457031 -18.566406 C 14.125 -18.566406 15.671875 -17.054688 15.671875 -14.867188 C 15.671875 -12.679688 14.125 -11.167969 11.457031 -11.167969 Z M 8.011719 -11.167969 "/></g></g></g><g fill="#1c1b1a" fill-opacity="1"><g transform="translate(139.89346, 34.174236)"><g><path d="M 8.140625 0 L 14.351562 0 L 14.351562 -8.140625 L 22.074219 -22.976562 L 15.511719 -22.976562 L 11.390625 -13.578125 L 11.101562 -13.578125 L 6.691406 -22.976562 L 0.257812 -22.976562 L 8.140625 -8.140625 Z M 8.140625 0 "/></g></g></g><g fill="#1c1b1a" fill-opacity="1"><g transform="translate(203.364927, 34.174236)"><g><path d="M 1.800781 0 L 7.789062 0 L 7.789062 -14.480469 L 8.078125 -14.480469 L 13.546875 0 L 18.34375 0 L 23.8125 -14.511719 L 24.101562 -14.511719 L 24.101562 0 L 30.085938 0 L 30.085938 -22.976562 L 21.816406 -22.976562 L 16.089844 -7.273438 L 15.800781 -7.273438 L 9.910156 -22.976562 L 1.800781 -22.976562 Z M 1.800781 0 "/></g></g></g><g fill="#1c1b1a" fill-opacity="1"><g transform="translate(240.731462, 34.174236)"><g><path d="M 12.195312 0.484375 C 18.535156 0.484375 22.78125 -3.347656 22.78125 -9.558594 L 22.78125 -22.976562 L 16.574219 -22.976562 L 16.574219 -9.78125 C 16.574219 -6.597656 14.867188 -4.601562 12.195312 -4.601562 C 9.492188 -4.601562 7.820312 -6.566406 7.820312 -9.78125 L 7.820312 -22.976562 L 1.609375 -22.976562 L 1.609375 -9.558594 C 1.609375 -3.347656 5.855469 0.484375 12.195312 0.484375 Z M 12.195312 0.484375 "/></g></g></g><g clip-path="url(#66de779baf)"><path fill="#1c1b1a" d="M 181.402344 37.835938 C 178.113281 37.835938 175.019531 36.554688 172.699219 34.226562 C 170.371094 31.90625 169.089844 28.8125 169.089844 25.523438 C 169.089844 22.238281 170.371094 19.144531 172.699219 16.820312 C 175.019531 14.496094 178.113281 13.214844 181.402344 13.214844 C 184.6875 13.214844 187.78125 14.496094 190.105469 16.820312 C 192.429688 19.148438 193.710938 22.238281 193.710938 25.523438 C 193.710938 28.8125 192.429688 31.90625 190.105469 34.226562 C 187.78125 36.554688 184.6875 37.835938 181.402344 37.835938 Z M 181.402344 13.953125 C 178.3125 13.953125 175.402344 15.160156 173.21875 17.34375 C 171.035156 19.527344 169.828125 22.433594 169.828125 25.523438 C 169.828125 28.613281 171.035156 31.523438 173.21875 33.707031 C 175.402344 35.890625 178.3125 37.097656 181.402344 37.097656 C 184.492188 37.097656 187.398438 35.890625 189.582031 33.707031 C 191.765625 31.523438 192.972656 28.613281 192.972656 25.523438 C 192.972656 22.433594 191.765625 19.527344 189.582031 17.34375 C 187.398438 15.160156 184.492188 13.953125 181.402344 13.953125 Z M 181.402344 13.953125 " fill-opacity="1" fill-rule="nonzero"/></g><g clip-path="url(#50bfe3e40f)"><path fill="#1c1b1a" d="M 181.402344 37.59375 C 178.179688 37.59375 175.144531 36.339844 172.867188 34.058594 C 170.585938 31.78125 169.332031 28.746094 169.332031 25.523438 C 169.332031 22.300781 170.585938 19.269531 172.867188 16.992188 C 175.144531 14.710938 178.179688 13.457031 181.402344 13.457031 C 184.625 13.457031 187.65625 14.710938 189.933594 16.992188 C 192.214844 19.273438 193.46875 22.300781 193.46875 25.523438 C 193.46875 28.746094 192.214844 31.78125 189.933594 34.058594 C 187.65625 36.339844 184.625 37.59375 181.402344 37.59375 Z M 181.402344 14.179688 C 178.371094 14.179688 175.519531 15.359375 173.378906 17.503906 C 171.238281 19.644531 170.054688 22.496094 170.054688 25.523438 C 170.054688 28.554688 171.238281 31.40625 173.378906 33.546875 C 175.519531 35.6875 178.371094 36.871094 181.402344 36.871094 C 184.429688 36.871094 187.28125 35.6875 189.421875 33.546875 C 191.566406 31.40625 192.746094 28.554688 192.746094 25.523438 C 192.746094 22.496094 191.566406 19.644531 189.421875 17.503906 C 187.28125 15.359375 184.429688 14.179688 181.402344 14.179688 Z M 181.402344 14.179688 " fill-opacity="1" fill-rule="nonzero"/></g><g clip-path="url(#0219e8c009)"><path fill="#1c1b1a" d="M 181.402344 37.078125 C 178.316406 37.078125 175.414062 35.878906 173.234375 33.695312 C 171.050781 31.515625 169.847656 28.609375 169.847656 25.523438 C 169.847656 22.441406 171.050781 19.535156 173.234375 17.355469 C 175.414062 15.171875 178.316406 13.972656 181.402344 13.972656 C 184.484375 13.972656 187.390625 15.171875 189.570312 17.355469 C 191.753906 19.542969 192.953125 22.441406 192.953125 25.523438 C 192.953125 28.609375 191.753906 31.515625 189.570312 33.695312 C 187.390625 35.878906 184.484375 37.078125 181.402344 37.078125 Z M 181.402344 14.664062 C 178.5 14.664062 175.773438 15.796875 173.722656 17.847656 C 171.671875 19.898438 170.542969 22.625 170.542969 25.523438 C 170.542969 28.425781 171.671875 31.152344 173.722656 33.203125 C 175.773438 35.253906 178.5 36.386719 181.402344 36.386719 C 184.300781 36.386719 187.03125 35.253906 189.082031 33.203125 C 191.128906 31.152344 192.261719 28.425781 192.261719 25.523438 C 192.261719 22.625 191.128906 19.898438 189.082031 17.847656 C 187.03125 15.796875 184.300781 14.664062 181.402344 14.664062 Z M 181.402344 14.664062 " fill-opacity="1" fill-rule="nonzero"/></g><path fill="#ffffff" d="M 186.355469 13.011719 C 186.355469 13.367188 186.320312 13.722656 186.25 14.070312 C 186.179688 14.417969 186.074219 14.757812 185.9375 15.085938 C 185.796875 15.414062 185.628906 15.726562 185.429688 16.023438 C 185.230469 16.320312 185 16.59375 184.746094 16.84375 C 184.492188 17.097656 184.214844 17.320312 183.914062 17.519531 C 183.617188 17.714844 183.300781 17.882812 182.964844 18.019531 C 182.632812 18.15625 182.289062 18.257812 181.9375 18.328125 C 181.582031 18.398438 181.226562 18.433594 180.867188 18.433594 C 180.507812 18.433594 180.148438 18.398438 179.796875 18.328125 C 179.441406 18.257812 179.097656 18.15625 178.765625 18.019531 C 178.433594 17.882812 178.117188 17.714844 177.816406 17.519531 C 177.519531 17.320312 177.242188 17.097656 176.984375 16.84375 C 176.730469 16.59375 176.503906 16.320312 176.304688 16.023438 C 176.101562 15.726562 175.933594 15.414062 175.796875 15.085938 C 175.660156 14.757812 175.554688 14.417969 175.484375 14.070312 C 175.414062 13.722656 175.378906 13.367188 175.378906 13.011719 C 175.378906 12.65625 175.414062 12.304688 175.484375 11.957031 C 175.554688 11.605469 175.660156 11.269531 175.796875 10.9375 C 175.933594 10.609375 176.101562 10.296875 176.304688 10.003906 C 176.503906 9.707031 176.730469 9.433594 176.984375 9.179688 C 177.242188 8.929688 177.519531 8.703125 177.816406 8.507812 C 178.117188 8.308594 178.433594 8.140625 178.765625 8.007812 C 179.097656 7.871094 179.441406 7.765625 179.796875 7.699219 C 180.148438 7.628906 180.507812 7.59375 180.867188 7.59375 C 181.226562 7.59375 181.582031 7.628906 181.9375 7.699219 C 182.289062 7.765625 182.632812 7.871094 182.964844 8.007812 C 183.300781 8.140625 183.617188 8.308594 183.914062 8.507812 C 184.214844 8.703125 184.492188 8.929688 184.746094 9.179688 C 185 9.433594 185.230469 9.707031 185.429688 10.003906 C 185.628906 10.296875 185.796875 10.609375 185.9375 10.9375 C 186.074219 11.269531 186.179688 11.605469 186.25 11.957031 C 186.320312 12.304688 186.355469 12.65625 186.355469 13.011719 Z M 186.355469 13.011719 " fill-opacity="1" fill-rule="nonzero"/><g clip-path="url(#7259c21849)"><path fill="#38a37f" d="M 185.683594 9.066406 C 185.367188 8.710938 185.015625 8.394531 184.628906 8.121094 C 184.242188 7.84375 183.828125 7.613281 183.386719 7.429688 C 182.945312 7.246094 182.492188 7.117188 182.019531 7.035156 C 181.550781 6.953125 181.074219 6.925781 180.597656 6.953125 C 180.121094 6.976562 179.652344 7.054688 179.191406 7.1875 C 178.734375 7.316406 178.296875 7.496094 177.878906 7.726562 C 177.460938 7.953125 177.074219 8.226562 176.71875 8.542969 C 176.363281 8.859375 176.046875 9.210938 175.773438 9.597656 C 175.628906 9.796875 175.5 10.003906 175.382812 10.21875 C 174.929688 11.042969 174.683594 11.921875 174.636719 12.859375 C 174.632812 12.964844 174.628906 13.070312 174.628906 13.175781 C 174.628906 13.425781 174.644531 13.675781 174.675781 13.925781 C 174.707031 14.175781 174.75 14.421875 174.8125 14.664062 C 174.875 14.910156 174.949219 15.148438 175.039062 15.382812 C 175.128906 15.617188 175.234375 15.847656 175.351562 16.070312 C 175.46875 16.292969 175.601562 16.507812 175.742188 16.714844 C 175.886719 16.921875 176.042969 17.117188 176.214844 17.304688 C 176.382812 17.492188 176.5625 17.671875 176.75 17.839844 C 176.941406 18.003906 177.140625 18.160156 177.351562 18.300781 C 177.558594 18.445312 177.777344 18.574219 178 18.691406 C 178.226562 18.808594 178.457031 18.914062 178.695312 19.003906 C 178.933594 19.089844 179.175781 19.167969 179.421875 19.226562 C 179.667969 19.289062 179.917969 19.332031 180.171875 19.363281 C 180.421875 19.394531 180.675781 19.410156 180.929688 19.410156 C 181.183594 19.410156 181.4375 19.398438 181.691406 19.367188 C 181.941406 19.335938 182.191406 19.292969 182.441406 19.234375 C 182.6875 19.171875 182.929688 19.101562 183.167969 19.011719 C 183.40625 18.921875 183.636719 18.820312 183.863281 18.703125 C 184.085938 18.589844 184.304688 18.460938 184.515625 18.316406 C 184.722656 18.175781 184.925781 18.019531 185.117188 17.855469 C 185.304688 17.6875 185.488281 17.511719 185.65625 17.324219 C 185.824219 17.136719 185.980469 16.941406 186.128906 16.734375 C 186.273438 16.527344 186.402344 16.3125 186.523438 16.09375 C 186.640625 15.871094 186.746094 15.640625 186.839844 15.40625 C 186.929688 15.171875 187.003906 14.933594 187.066406 14.691406 C 187.128906 14.445312 187.175781 14.199219 187.207031 13.953125 C 187.238281 13.703125 187.253906 13.453125 187.257812 13.203125 C 187.257812 12.949219 187.242188 12.699219 187.214844 12.449219 C 187.183594 12.203125 187.140625 11.953125 187.078125 11.710938 C 187.019531 11.464844 186.945312 11.226562 186.855469 10.992188 C 186.765625 10.757812 186.664062 10.527344 186.546875 10.304688 C 186.429688 10.082031 186.296875 9.867188 186.15625 9.660156 C 186.011719 9.453125 185.855469 9.253906 185.6875 9.066406 Z M 178.835938 14.035156 C 179.367188 14.40625 179.867188 14.628906 180.382812 14.710938 L 180.382812 13.722656 C 179.042969 13.417969 178.359375 12.964844 178.359375 11.945312 L 178.359375 11.929688 C 178.359375 10.960938 179.078125 10.285156 180.351562 10.195312 L 180.351562 9.726562 L 181.214844 9.726562 L 181.214844 10.222656 C 181.855469 10.289062 182.441406 10.5 182.96875 10.863281 L 182.289062 11.964844 C 181.945312 11.730469 181.574219 11.570312 181.171875 11.472656 L 181.171875 12.425781 C 182.492188 12.730469 183.160156 13.199219 183.160156 14.21875 L 183.160156 14.238281 C 183.160156 15.238281 182.378906 15.855469 181.199219 15.960938 L 181.199219 16.769531 L 180.332031 16.769531 L 180.332031 15.941406 C 179.511719 15.863281 178.761719 15.589844 178.085938 15.125 Z M 178.835938 14.035156 " fill-opacity="1" fill-rule="nonzero"/></g><path fill="#38a37f" d="M 181.722656 14.339844 L 181.722656 14.320312 C 181.722656 14.101562 181.597656 13.976562 181.164062 13.855469 L 181.164062 14.757812 C 181.546875 14.714844 181.722656 14.578125 181.722656 14.339844 Z M 181.722656 14.339844 " fill-opacity="1" fill-rule="nonzero"/><path fill="#38a37f" d="M 180.390625 11.394531 C 179.984375 11.429688 179.824219 11.59375 179.824219 11.808594 L 179.824219 11.824219 C 179.824219 12.039062 179.941406 12.160156 180.390625 12.285156 Z M 180.390625 11.394531 " fill-opacity="1" fill-rule="nonzero"/><g clip-path="url(#a6c1b69d78)"><path fill="#de6c2d" d="M 174.941406 31.863281 C 174.941406 32.253906 174.902344 32.644531 174.828125 33.027344 C 174.75 33.414062 174.636719 33.785156 174.488281 34.148438 C 174.335938 34.511719 174.152344 34.855469 173.933594 35.183594 C 173.714844 35.507812 173.46875 35.808594 173.191406 36.085938 C 172.914062 36.363281 172.613281 36.613281 172.285156 36.832031 C 171.960938 37.046875 171.617188 37.234375 171.253906 37.382812 C 170.890625 37.53125 170.515625 37.644531 170.132812 37.722656 C 169.746094 37.800781 169.359375 37.835938 168.964844 37.835938 C 168.574219 37.835938 168.1875 37.800781 167.800781 37.722656 C 167.417969 37.644531 167.042969 37.53125 166.679688 37.382812 C 166.316406 37.234375 165.972656 37.046875 165.648438 36.832031 C 165.320312 36.613281 165.019531 36.363281 164.742188 36.085938 C 164.464844 35.808594 164.21875 35.507812 164 35.183594 C 163.78125 34.855469 163.597656 34.511719 163.445312 34.148438 C 163.296875 33.785156 163.183594 33.414062 163.105469 33.027344 C 163.03125 32.644531 162.992188 32.253906 162.992188 31.863281 C 162.992188 31.46875 163.03125 31.082031 163.105469 30.699219 C 163.183594 30.3125 163.296875 29.9375 163.445312 29.578125 C 163.597656 29.214844 163.78125 28.871094 164 28.542969 C 164.21875 28.21875 164.464844 27.914062 164.742188 27.636719 C 165.019531 27.359375 165.320312 27.113281 165.648438 26.894531 C 165.972656 26.675781 166.316406 26.492188 166.679688 26.34375 C 167.042969 26.191406 167.417969 26.078125 167.800781 26.003906 C 168.1875 25.925781 168.574219 25.886719 168.964844 25.886719 C 169.359375 25.886719 169.746094 25.925781 170.132812 26.003906 C 170.515625 26.078125 170.890625 26.191406 171.253906 26.34375 C 171.617188 26.492188 171.960938 26.675781 172.285156 26.894531 C 172.613281 27.113281 172.914062 27.359375 173.191406 27.636719 C 173.46875 27.914062 173.714844 28.21875 173.933594 28.542969 C 174.152344 28.871094 174.335938 29.214844 174.488281 29.578125 C 174.636719 29.9375 174.75 30.3125 174.828125 30.699219 C 174.902344 31.082031 174.941406 31.46875 174.941406 31.863281 Z M 174.941406 31.863281 " fill-opacity="1" fill-rule="nonzero"/></g><g clip-path="url(#1e049d0698)"><path fill="#ffffff" d="M 173.027344 31.992188 L 173.027344 31.617188 L 173.824219 31.617188 C 173.789062 30.65625 173.492188 29.785156 172.929688 29 C 173.515625 28.265625 175.027344 26.195312 174.886719 25.960938 C 174.765625 25.753906 172.605469 27.015625 171.691406 27.785156 C 170.910156 27.257812 170.050781 26.980469 169.105469 26.953125 L 169.105469 27.699219 L 168.726562 27.699219 L 168.726562 26.953125 C 166.222656 27.078125 164.210938 29.105469 164.117188 31.617188 L 164.808594 31.617188 L 164.808594 31.992188 L 164.117188 31.992188 C 164.214844 34.507812 166.222656 36.535156 168.730469 36.65625 L 168.730469 35.914062 L 169.105469 35.914062 L 169.105469 36.65625 C 171.660156 36.585938 173.722656 34.539062 173.820312 31.992188 Z M 173.027344 31.992188 " fill-opacity="1" fill-rule="nonzero"/></g><path fill="#384158" d="M 168.609375 31.445312 L 166.835938 30.039062 L 166.222656 30.65625 L 169.007812 33.777344 C 170.257812 31.414062 172.445312 28.53125 174.171875 26.621094 C 173.167969 27.097656 170.101562 29.796875 168.609375 31.445312 Z M 168.609375 31.445312 " fill-opacity="1" fill-rule="evenodd"/><g clip-path="url(#c8d96a985c)"><path fill="#000000" d="M 179.910156 20.140625 L 180.09375 21.265625 C 180.238281 21.3125 180.378906 21.371094 180.511719 21.441406 L 181.441406 20.777344 L 182.390625 21.726562 L 181.738281 22.660156 C 181.808594 22.796875 181.867188 22.9375 181.917969 23.085938 L 183.039062 23.273438 L 183.039062 24.613281 L 181.917969 24.8125 C 181.871094 24.960938 181.8125 25.101562 181.742188 25.238281 L 182.402344 26.164062 L 181.453125 27.113281 L 180.519531 26.460938 C 180.382812 26.527344 180.242188 26.585938 180.09375 26.632812 L 179.910156 27.761719 L 178.566406 27.761719 L 178.363281 26.632812 C 178.21875 26.582031 178.078125 26.523438 177.945312 26.457031 L 177.003906 27.113281 L 176.054688 26.164062 L 176.726562 25.230469 C 176.65625 25.097656 176.601562 24.957031 176.554688 24.8125 L 175.417969 24.617188 L 175.417969 23.269531 L 176.554688 23.085938 C 176.601562 22.941406 176.660156 22.800781 176.726562 22.667969 L 176.066406 21.726562 L 177.015625 20.777344 L 177.945312 21.445312 C 178.082031 21.375 178.222656 21.316406 178.367188 21.269531 L 178.566406 20.140625 Z M 182.488281 20.21875 C 182.503906 20.21875 182.519531 20.21875 182.535156 20.222656 C 183.835938 20.425781 184.726562 21.011719 185.289062 21.804688 C 185.839844 22.578125 186.082031 23.535156 186.195312 24.515625 L 187.296875 26.417969 L 187.300781 26.417969 C 187.488281 26.757812 187.367188 27.195312 187.027344 27.386719 L 187.019531 27.386719 L 186.1875 27.804688 L 185.921875 29.765625 L 185.921875 29.769531 C 185.804688 30.5 185.164062 31.054688 184.425781 31.023438 L 183.582031 31.027344 L 183.582031 32.113281 L 183.355469 32.113281 C 183.324219 32.117188 183.296875 32.117188 183.265625 32.113281 L 183.039062 32.113281 L 183.039062 30.480469 L 184.445312 30.480469 C 184.898438 30.5 185.308594 30.148438 185.382812 29.683594 L 185.382812 29.6875 L 185.6875 27.445312 L 186.761719 26.910156 C 186.851562 26.859375 186.875 26.777344 186.824219 26.683594 L 185.675781 24.703125 L 185.667969 24.644531 C 185.566406 23.691406 185.332031 22.800781 184.847656 22.121094 C 184.363281 21.4375 183.632812 20.945312 182.453125 20.761719 C 182.285156 20.738281 182.207031 20.640625 182.21875 20.472656 C 182.230469 20.304688 182.320312 20.21875 182.488281 20.21875 Z M 179.445312 20.6875 L 179.023438 20.6875 L 178.847656 21.683594 L 178.675781 21.726562 C 178.453125 21.78125 178.242188 21.871094 178.050781 21.984375 L 177.894531 22.078125 L 177.074219 21.488281 L 176.773438 21.789062 L 177.359375 22.621094 L 177.265625 22.773438 C 177.152344 22.964844 177.0625 23.171875 177.007812 23.394531 L 176.964844 23.570312 L 175.964844 23.734375 L 175.964844 24.15625 L 176.964844 24.335938 L 177.007812 24.507812 C 177.0625 24.730469 177.152344 24.9375 177.265625 25.128906 L 177.359375 25.285156 L 176.765625 26.105469 L 177.066406 26.40625 L 177.898438 25.824219 L 178.050781 25.914062 C 178.238281 26.03125 178.453125 26.121094 178.675781 26.175781 L 178.84375 26.222656 L 179.019531 27.214844 L 179.445312 27.214844 L 179.613281 26.222656 L 179.785156 26.179688 C 180.011719 26.125 180.222656 26.035156 180.414062 25.921875 L 180.566406 25.828125 L 181.390625 26.40625 L 181.691406 26.105469 L 181.109375 25.289062 L 181.203125 25.136719 C 181.320312 24.941406 181.40625 24.730469 181.464844 24.503906 L 181.503906 24.332031 L 182.492188 24.160156 L 182.492188 23.734375 L 181.503906 23.566406 L 181.460938 23.394531 C 181.40625 23.167969 181.316406 22.957031 181.199219 22.761719 L 181.109375 22.613281 L 181.683594 21.789062 L 181.382812 21.488281 L 180.566406 22.070312 L 180.410156 21.980469 C 180.21875 21.863281 180.007812 21.777344 179.785156 21.722656 L 179.609375 21.679688 Z M 179.230469 22.589844 C 179.976562 22.589844 180.589844 23.203125 180.589844 23.949219 C 180.589844 24.699219 179.976562 25.3125 179.230469 25.3125 C 178.480469 25.3125 177.867188 24.699219 177.867188 23.949219 C 177.867188 23.203125 178.480469 22.589844 179.230469 22.589844 Z M 179.230469 23.136719 C 178.773438 23.136719 178.414062 23.496094 178.414062 23.949219 C 178.414062 24.40625 178.773438 24.765625 179.230469 24.765625 C 179.683594 24.765625 180.042969 24.40625 180.042969 23.949219 C 180.042969 23.496094 179.683594 23.136719 179.230469 23.136719 Z M 177.59375 27.660156 C 177.691406 27.660156 177.765625 27.699219 177.820312 27.78125 C 178.347656 28.535156 178.679688 29.421875 178.679688 30.371094 L 178.679688 31.570312 L 178.683594 31.570312 L 178.683594 32.113281 L 178.453125 32.113281 C 178.425781 32.117188 178.394531 32.117188 178.363281 32.113281 L 178.140625 32.113281 L 178.140625 31.894531 C 178.136719 31.875 178.136719 31.859375 178.136719 31.84375 L 178.136719 30.371094 C 178.136719 29.550781 177.847656 28.769531 177.375 28.089844 C 177.308594 28 177.300781 27.90625 177.351562 27.808594 C 177.402344 27.710938 177.484375 27.660156 177.59375 27.660156 Z M 177.59375 27.660156 " fill-opacity="1" fill-rule="nonzero"/></g><g clip-path="url(#59cb6cfbd8)"><path fill="#4464c2" d="M 200.039062 30.902344 C 200.039062 31.296875 200 31.691406 199.921875 32.078125 C 199.847656 32.46875 199.730469 32.847656 199.578125 33.210938 C 199.425781 33.578125 199.242188 33.925781 199.019531 34.257812 C 198.800781 34.585938 198.550781 34.890625 198.269531 35.171875 C 197.988281 35.453125 197.683594 35.703125 197.355469 35.921875 C 197.023438 36.144531 196.675781 36.328125 196.3125 36.480469 C 195.945312 36.632812 195.566406 36.746094 195.175781 36.824219 C 194.789062 36.902344 194.394531 36.941406 194 36.941406 C 193.601562 36.941406 193.210938 36.902344 192.820312 36.824219 C 192.433594 36.746094 192.054688 36.632812 191.6875 36.480469 C 191.320312 36.328125 190.972656 36.144531 190.644531 35.921875 C 190.3125 35.703125 190.007812 35.453125 189.726562 35.171875 C 189.449219 34.890625 189.199219 34.585938 188.976562 34.257812 C 188.757812 33.925781 188.570312 33.578125 188.417969 33.210938 C 188.265625 32.847656 188.152344 32.46875 188.074219 32.078125 C 187.996094 31.691406 187.960938 31.296875 187.960938 30.902344 C 187.960938 30.503906 187.996094 30.113281 188.074219 29.722656 C 188.152344 29.332031 188.265625 28.957031 188.417969 28.589844 C 188.570312 28.222656 188.757812 27.875 188.976562 27.546875 C 189.199219 27.214844 189.449219 26.910156 189.726562 26.628906 C 190.007812 26.347656 190.3125 26.097656 190.644531 25.878906 C 190.972656 25.660156 191.320312 25.472656 191.6875 25.320312 C 192.054688 25.167969 192.433594 25.054688 192.820312 24.976562 C 193.210938 24.898438 193.601562 24.859375 194 24.859375 C 194.394531 24.859375 194.789062 24.898438 195.175781 24.976562 C 195.566406 25.054688 195.945312 25.167969 196.3125 25.320312 C 196.675781 25.472656 197.023438 25.660156 197.355469 25.878906 C 197.683594 26.097656 197.988281 26.347656 198.269531 26.628906 C 198.550781 26.910156 198.800781 27.214844 199.019531 27.546875 C 199.242188 27.875 199.425781 28.222656 199.578125 28.589844 C 199.730469 28.957031 199.847656 29.332031 199.921875 29.722656 C 200 30.113281 200.039062 30.503906 200.039062 30.902344 Z M 200.039062 30.902344 " fill-opacity="1" fill-rule="nonzero"/></g><g clip-path="url(#77edf10b1f)"><path fill="#4160ba" d="M 188.765625 30.902344 C 188.765625 30.523438 188.800781 30.144531 188.871094 29.773438 C 188.945312 29.402344 189.050781 29.039062 189.1875 28.683594 C 189.328125 28.332031 189.5 27.996094 189.703125 27.675781 C 189.90625 27.355469 190.136719 27.054688 190.398438 26.78125 C 190.65625 26.503906 190.9375 26.253906 191.246094 26.027344 C 191.550781 25.804688 191.875 25.613281 192.21875 25.449219 C 192.5625 25.289062 192.917969 25.160156 193.285156 25.0625 C 193.652344 24.96875 194.023438 24.90625 194.402344 24.882812 C 194.269531 24.871094 194.136719 24.859375 194 24.859375 C 193.601562 24.859375 193.210938 24.898438 192.820312 24.976562 C 192.433594 25.054688 192.054688 25.167969 191.6875 25.320312 C 191.320312 25.472656 190.972656 25.660156 190.644531 25.878906 C 190.3125 26.097656 190.007812 26.347656 189.726562 26.628906 C 189.449219 26.910156 189.199219 27.214844 188.976562 27.546875 C 188.757812 27.875 188.570312 28.222656 188.417969 28.589844 C 188.265625 28.957031 188.152344 29.332031 188.074219 29.722656 C 187.996094 30.113281 187.960938 30.503906 187.960938 30.902344 C 187.960938 31.296875 187.996094 31.691406 188.074219 32.078125 C 188.152344 32.46875 188.265625 32.847656 188.417969 33.210938 C 188.570312 33.578125 188.757812 33.925781 188.976562 34.257812 C 189.199219 34.585938 189.449219 34.890625 189.726562 35.171875 C 190.007812 35.453125 190.3125 35.703125 190.644531 35.921875 C 190.972656 36.144531 191.320312 36.328125 191.6875 36.480469 C 192.054688 36.632812 192.433594 36.746094 192.820312 36.824219 C 193.210938 36.902344 193.601562 36.941406 194 36.941406 C 194.136719 36.941406 194.269531 36.929688 194.402344 36.921875 C 194.023438 36.894531 193.652344 36.835938 193.285156 36.738281 C 192.917969 36.644531 192.5625 36.515625 192.21875 36.351562 C 191.875 36.1875 191.550781 35.996094 191.246094 35.773438 C 190.9375 35.550781 190.65625 35.296875 190.398438 35.023438 C 190.136719 34.746094 189.90625 34.445312 189.703125 34.125 C 189.5 33.804688 189.328125 33.46875 189.1875 33.117188 C 189.050781 32.765625 188.945312 32.402344 188.871094 32.027344 C 188.800781 31.65625 188.765625 31.28125 188.765625 30.902344 Z M 188.765625 30.902344 " fill-opacity="1" fill-rule="nonzero"/></g><g clip-path="url(#88f76a4b22)"><path fill="#ffde59" d="M 199.644531 28.710938 L 199.632812 28.714844 L 193.910156 31.382812 L 193.597656 31.070312 L 193.597656 24.859375 L 194 24.859375 C 194.539062 24.863281 195.070312 24.933594 195.589844 25.078125 C 196.109375 25.222656 196.605469 25.429688 197.070312 25.703125 C 197.535156 25.980469 197.953125 26.308594 198.332031 26.695312 C 198.707031 27.082031 199.027344 27.511719 199.289062 27.984375 C 199.324219 28.042969 199.355469 28.101562 199.386719 28.164062 L 199.476562 28.347656 Z M 199.644531 28.710938 " fill-opacity="1" fill-rule="nonzero"/></g><g clip-path="url(#57ac391b18)"><path fill="#ff3057" d="M 200.039062 30.902344 C 200.039062 31.703125 199.886719 32.472656 199.582031 33.214844 C 199.273438 33.953125 198.839844 34.605469 198.273438 35.171875 L 197.984375 35.460938 L 193.597656 31.070312 L 199.492188 28.382812 C 199.542969 28.492188 199.589844 28.601562 199.632812 28.714844 C 199.90625 29.417969 200.039062 30.148438 200.039062 30.902344 Z M 200.039062 30.902344 " fill-opacity="1" fill-rule="nonzero"/></g></svg>