<svg fill="none" height="24" viewBox="0 0 24 24" width="24" xmlns="http://www.w3.org/2000/svg"><path d="m18.0303 16.6099 4.28 4.282-1.42 1.41-4.282-4.29v-.01c-1.6 1.27-3.58 1.97-5.62 1.96-4.96802 0-9.00002-4.032-9.00002-9 0-4.96799 4.032-8.99999 9.00002-8.99999 4.968 0 9 4.032 9 8.99999l-.01-.01c0 2.04-.7 4.02-1.97 5.61zm-2.01-.75h-.01c1.26-1.31 1.97-3.06 1.97-4.88 0-3.86999-3.14-6.99999-7-6.99999-3.87002 0-7.00002 3.13-7.00002 6.99999 0 3.86 3.13 7 7.00002 7l-.01-.001c1.82 0 3.56-.71 4.87-1.98l.15-.15z" fill="#000"/></svg>